# xmcd
#
# Track frame offsets: 
#        150
#        12657
#        27520
#        42987
#        67255
#        79652
#        93367
#        109692
#        120327
#        134245
#        150727
#        163537
#        167732
#        182077
#        196355
#        213682
#        227395
#        251300
#        264402
#        280145
#        293125
#        299580
#
# Disc length: 4239 seconds
#
# Revision: 0
# Processed by: cddbd v1.4PL0 Copyright (c) Steve Scherf et al.
# Submitted via: ExactAudioCopy v0.90a11
#
DISCID=46108d16
DTITLE=Hoyt Axton - Joy to the World and Country Anthem
DYEAR=1900
DGENRE=
TTITLE0=Joy to the World
TTITLE1=Alice in Wonderland
TTITLE2=Never Been to Spain
TTITLE3=The Pusher
TTITLE4=Ease Your Pain
TTITLE5=Have a Nice Day
TTITLE6=Indian Song
TTITLE7=California Woman
TTITLE8=Lightning Bar Blues
TTITLE9=Farther Along
TTITLE10=Old Time Religion
TTITLE11=My Carolina Sunshine Girl
TTITLE12=Jambalaya (On the Bayou)
TTITLE13=Officer Ray
TTITLE14=Epistle
TTITLE15=Heaven
TTITLE16=Better Lovin' Man
TTITLE17=Hey, Mr. Pilot Man
TTITLE18=The Devil
TTITLE19=Thomas Hall
TTITLE20=Country Anthem
TTITLE21=It's Been Fun
EXTD=2001 Compilation, Raven Records, Australia\nRVCD-120
EXTT0=
EXTT1=
EXTT2=
EXTT3=
EXTT4=
EXTT5=
EXTT6=
EXTT7=
EXTT8=
EXTT9=
EXTT10=
EXTT11=
EXTT12=
EXTT13=
EXTT14=
EXTT15=
EXTT16=
EXTT17=
EXTT18=
EXTT19=
EXTT20=
EXTT21=
PLAYORDER=
